name C:\Users\u0150099\Documents\master_thesis\3dpredictsim\Results\debug\Fal_s1_mtj_sc_cspx5_oy_MTc2_MTPm_k1_d01_MTJm_nl_MG_exp_v2_table_d01_PF_Natali2010_ls146_FDB_ig21.mot
datacolumns 130
datarows 4
range 1.58192115 1.61355957
endheader
time	pelvis_tilt	pelvis_list	pelvis_rotation	pelvis_tx	pelvis_ty	pelvis_tz	hip_flexion_l	hip_adduction_l	hip_rotation_l	hip_flexion_r	hip_adduction_r	hip_rotation_r	knee_angle_l	knee_angle_r	ankle_angle_l	ankle_angle_r	subtalar_angle_l	subtalar_angle_r	mtj_angle_l	mtj_angle_r	mtp_angle_l	mtp_angle_r	lumbar_extension	lumbar_bending	lumbar_rotation	arm_flex_l	arm_add_l	arm_rot_l	arm_flex_r	arm_add_r	arm_rot_r	elbow_flex_l	elbow_flex_r	pro_sup_l	pro_sup_r	glut_med1_l/activation	glut_med2_l/activation	glut_med3_l/activation	glut_min1_l/activation	glut_min2_l/activation	glut_min3_l/activation	semimem_l/activation	semiten_l/activation	bifemlh_l/activation	bifemsh_l/activation	sar_l/activation	add_long_l/activation	add_brev_l/activation	add_mag1_l/activation	add_mag2_l/activation	add_mag3_l/activation	tfl_l/activation	pect_l/activation	grac_l/activation	glut_max1_l/activation	glut_max2_l/activation	glut_max3_l/activation	iliacus_l/activation	psoas_l/activation	quad_fem_l/activation	gem_l/activation	peri_l/activation	rect_fem_l/activation	vas_med_l/activation	vas_int_l/activation	vas_lat_l/activation	med_gas_l/activation	lat_gas_l/activation	soleus_l/activation	tib_post_l/activation	flex_dig_l/activation	flex_hal_l/activation	tib_ant_l/activation	per_brev_l/activation	per_long_l/activation	per_tert_l/activation	ext_dig_l/activation	ext_hal_l/activation	FDB_l/activation	ercspn_l/activation	intobl_l/activation	extobl_l/activation	glut_med1_r/activation	glut_med2_r/activation	glut_med3_r/activation	glut_min1_r/activation	glut_min2_r/activation	glut_min3_r/activation	semimem_r/activation	semiten_r/activation	bifemlh_r/activation	bifemsh_r/activation	sar_r/activation	add_long_r/activation	add_brev_r/activation	add_mag1_r/activation	add_mag2_r/activation	add_mag3_r/activation	tfl_r/activation	pect_r/activation	grac_r/activation	glut_max1_r/activation	glut_max2_r/activation	glut_max3_r/activation	iliacus_r/activation	psoas_r/activation	quad_fem_r/activation	gem_r/activation	peri_r/activation	rect_fem_r/activation	vas_med_r/activation	vas_int_r/activation	vas_lat_r/activation	med_gas_r/activation	lat_gas_r/activation	soleus_r/activation	tib_post_r/activation	flex_dig_r/activation	flex_hal_r/activation	tib_ant_r/activation	per_brev_r/activation	per_long_r/activation	per_tert_r/activation	ext_dig_r/activation	ext_hal_r/activation	FDB_r/activation	ercspn_r/activation	intobl_r/activation	extobl_r/activation	
          1.58192115	         -2.92503378	          2.33337915	         -3.19954635	          2.10395513	          0.91111447	          0.00186053	         28.35581420	          4.33959794	         -2.29946036	        -12.93765454	          1.71353418	          4.38841925	        -12.58013567	        -17.65768056	          7.50354639	         -1.29640326	         -7.92162413	        -11.85956176	          1.44370942	         -3.56025086	          0.70704644	         32.14505431	         -4.15683093	         -1.09235927	          1.97412156	         -4.47596660	        -13.45665713	          6.49826772	          4.74950360	        -13.49281120	         19.36826482	         23.98801247	         35.51695782	         86.51662706	         86.51662706	          0.14509869	          0.05000352	          0.05007074	          0.05000266	          0.05000425	          0.05001952	          0.34376003	          0.06912189	          0.34466487	          0.06912171	          0.05874709	          0.10262719	          0.15386629	          0.05914975	          0.05536810	          0.24100411	          0.05000689	          0.05016103	          0.06913061	          0.05008434	          0.11780748	          0.21888186	          0.05001663	          0.05646434	          0.15542265	          0.05001001	          0.05000335	          0.05000016	          0.05000044	          0.05000040	          0.05000037	          0.09555689	          0.05878882	          0.05578862	          0.05350491	          0.05022106	          0.05612214	          0.31619153	          0.20223803	          0.21124690	          0.28191210	          0.66112692	          0.36308967	          0.06773414	          0.07516690	          0.10378849	          0.11124160	          0.29096124	          0.05000091	          0.05000037	          0.47681795	          0.12018252	          0.05026445	          0.05001589	          0.05000144	          0.05000109	          0.05000121	          0.05001128	          0.18541560	          0.05356791	          0.05001050	          0.05004198	          0.05675075	          0.32456731	          0.05100940	          0.05000254	          0.05001302	          0.05000718	          0.05000680	          0.41168312	          0.73854866	          0.05000049	          0.05000138	          0.05000055	          0.50526678	          0.27544027	          0.27929382	          0.23343701	          0.32495195	          0.49757330	          0.15531816	          0.44633103	          0.36726265	          0.48488825	          0.05000006	          0.27691596	          0.38701378	          0.05000053	          0.05000024	          0.10083739	          0.61452523	          0.05000015	          0.05000052	          0.05000030	
          1.59246729	         -2.92910284	          2.36701976	         -3.53102314	          2.12065711	          0.90981417	          0.00163550	         28.16903758	          4.48424674	         -2.15131638	        -13.61085395	          1.38460411	          4.08700731	        -13.20643155	        -17.93066552	          6.99813593	         -2.26985830	         -8.29644667	        -11.10364990	          1.64783488	         -4.75687254	          0.28757946	         35.15600422	         -3.98910210	         -1.20944842	          2.07174064	         -5.25365371	        -13.47285621	          6.21396491	          4.44375660	        -13.45874956	         19.35084379	         23.42458902	         36.84367810	         86.51662706	         86.51662706	          0.12340838	          0.05749927	          0.05000166	          0.05878838	          0.05878662	          0.05002063	          0.29362343	          0.05878880	          0.29976897	          0.05878865	          0.05008698	          0.08782269	          0.13087973	          0.23636864	          0.18838628	          0.26652955	          0.05000867	          0.05006205	          0.05879664	          0.05000999	          0.16095800	          0.27883582	          0.06616096	          0.07159887	          0.20374824	          0.11328847	          0.08099514	          0.08127119	          0.05000166	          0.05000175	          0.05000133	          0.08127191	          0.05000061	          0.05000005	          0.05000350	          0.05006398	          0.05005883	          0.34941740	          0.24426271	          0.22488733	          0.23977052	          0.70977317	          0.42694654	          0.05878850	          0.07196219	          0.08827311	          0.09461185	          0.24746538	          0.05000060	          0.05000023	          0.40553850	          0.10221670	          0.05000130	          0.05001475	          0.05000078	          0.05000070	          0.05000066	          0.05000468	          0.17983110	          0.16411245	          0.05000602	          0.05004333	          0.05872113	          0.27606626	          0.06719386	          0.05000131	          0.05000676	          0.05000375	          0.05000374	          0.35013970	          0.68142990	          0.05000025	          0.05000126	          0.05000168	          0.42973547	          0.25244571	          0.25245463	          0.21774557	          0.27637423	          0.42319071	          0.13209947	          0.40571317	          0.31236102	          0.41240291	          0.05000003	          0.23551913	          0.32915809	          0.05000043	          0.05000016	          0.08576299	          0.52265832	          0.05000007	          0.05000070	          0.05000022	
          1.60301343	         -2.93017476	          2.38854596	         -3.85078381	          2.13767211	          0.90843823	          0.00138960	         27.92299834	          4.62393693	         -1.97042512	        -14.20350718	          1.04872355	          3.78042281	        -14.39634405	        -18.33654182	          6.30484500	         -3.33751452	         -8.69638129	        -10.25817246	          1.93881706	         -6.05623457	         -0.03709482	         38.35259866	         -3.80270768	         -1.31851738	          2.16341921	         -6.08661192	        -13.49581069	          6.00060597	          4.05609411	        -13.44972418	         19.34114832	         22.94859052	         38.21444344	         86.51662706	         86.51662706	          0.24629424	          0.05000052	          0.14767928	          0.05000078	          0.05000075	          0.05000110	          0.24972957	          0.05000041	          0.25503998	          0.05000025	          0.05001342	          0.07470482	          0.27000570	          0.20106352	          0.18811880	          0.30515035	          0.05004107	          0.06911735	          0.05000727	          0.05000272	          0.22564455	          0.33066470	          0.06912065	          0.06885908	          0.35461533	          0.09635435	          0.11870703	          0.06912189	          0.12180884	          0.11119249	          0.09755490	          0.06912245	          0.06912171	          0.06912147	          0.05000114	          0.05879038	          0.05879097	          0.42850575	          0.20775553	          0.19802504	          0.55292525	          0.73681651	          0.55607958	          0.05000008	          0.06426169	          0.07507706	          0.08046809	          0.21047154	          0.05000708	          0.05000736	          0.34491394	          0.08693659	          0.05001419	          0.05002160	          0.05000585	          0.05000717	          0.05001251	          0.05887129	          0.23682715	          0.29775036	          0.05878102	          0.05010280	          0.05000601	          0.23479829	          0.06915082	          0.05878474	          0.05008095	          0.05004700	          0.05004395	          0.29779650	          0.64404041	          0.05878796	          0.05001861	          0.05000137	          0.36549322	          0.21470720	          0.21471475	          0.18519440	          0.23505832	          0.35992689	          0.11235158	          0.34506216	          0.26566559	          0.35075207	          0.05000063	          0.20031089	          0.27995147	          0.05000022	          0.05000023	          0.07294209	          0.44452479	          0.06553629	          0.05878815	          0.05000051	
          1.61355957	         -2.92970370	          2.40914862	         -4.15348049	          2.15485507	          0.90706712	          0.00112209	         27.56305751	          4.74843943	         -1.77317560	        -14.65372222	          0.70451710	          3.49721080	        -15.65514218	        -18.96361195	          5.65934490	         -4.52108905	         -9.07887286	         -9.35650705	          2.14505230	         -7.41982513	         -0.21303918	         41.58941463	         -3.60885588	         -1.42838855	          2.24634642	         -6.92761782	        -13.52209419	          5.87850536	          3.61084089	        -13.45574307	         19.32601759	         22.50132976	         39.59899535	         86.51662706	         86.51662706	          0.39333752	          0.35278235	          0.38595169	          0.36027051	          0.31126558	          0.28649260	          0.21239697	          0.16799184	          0.21881593	          0.11235344	          0.05878875	          0.06353734	          0.22964222	          0.17100725	          0.16233131	          0.34240867	          0.05000121	          0.05878895	          0.25639119	          0.27899143	          0.30440613	          0.38952154	          0.05878807	          0.05856589	          0.30160327	          0.08195090	          0.11102257	          0.05878869	          0.10359935	          0.09457006	          0.08297118	          0.05878915	          0.05878855	          0.05878831	          0.05000082	          0.05000178	          0.05000233	          0.46208827	          0.18673296	          0.22372192	          0.60219228	          0.84546573	          0.73934193	          0.44218530	          0.09475191	          0.09555576	          0.06843872	          0.17900787	          0.05000027	          0.05000011	          0.29335262	          0.07394075	          0.05000066	          0.05010778	          0.05000754	          0.05000152	          0.05007350	          0.05007359	          0.28844945	          0.29453260	          0.05000254	          0.05002035	          0.10794431	          0.21995029	          0.05881622	          0.05000299	          0.05000355	          0.05000207	          0.05000197	          0.25327822	          0.73177683	          0.05000017	          0.05000055	          0.05000043	          0.31085482	          0.18261039	          0.18261674	          0.15750941	          0.19991882	          0.30612049	          0.09555585	          0.29347795	          0.22595062	          0.29831743	          0.13041641	          0.22230989	          0.23810180	          0.32327642	          0.16761180	          0.06203784	          0.37807163	          0.08435268	          0.05000005	          0.05000032	
